PathFileType	3	(X/Y/Z)	running_1__view1_aligned.trc
DataRate	CameraRate	NumFrames	NumMarkers	Units	OrigDataRate	OrigDataStartFrame	OrigNumFrames
100.0	100.0	13	19	mm	100.0	2624	6401
Frame#	Time	pelvis			neck			head			hip_left			hip_right			knee_left			knee_right			ankle_left			ankle_right			heel_left			heel_right			toe_left			toe_right			shoulder_left			shoulder_right			elbow_left			elbow_right			wrist_left			wrist_right			
		X1	Y1	Z1	X2	Y2	Z2	X3	Y3	Z3	X4	Y4	Z4	X5	Y5	Z5	X6	Y6	Z6	X7	Y7	Z7	X8	Y8	Z8	X9	Y9	Z9	X10	Y10	Z10	X11	Y11	Z11	X12	Y12	Z12	X13	Y13	Z13	X14	Y14	Z14	X15	Y15	Z15	X16	Y16	Z16	X17	Y17	Z17	X18	Y18	Z18	X19	Y19	Z19	
2624	26.23000	1.779837	928.705068	157.380635	-31.277733	1469.335195	288.631667	-23.765946	1555.507393	431.708918	77.975824	930.297983	150.770236	-74.416139	927.112152	163.991045	88.069286	512.328790	199.930196	-96.252784	532.472247	355.833623	41.895771	250.920840	-105.578629	-110.184386	157.315084	256.734970	29.445009	242.432270	-159.608791	-112.218732	109.918506	221.388981	64.118840	84.379098	-36.206099	-103.774664	110.017303	439.849495	147.102033	1455.549245	253.595307	-198.041912	1420.031070	232.948134	257.338340	1204.524808	221.370714	-306.460341	1185.193283	120.341447	130.286101	1145.491076	418.497431	-312.694364	986.884406	273.578404
2625	26.24000	-0.835702	930.372921	159.703611	-34.403201	1471.095601	291.273272	-27.101950	1557.323034	434.323324	75.448143	931.886253	153.242962	-77.119506	928.859595	166.164235	86.829317	514.579931	205.686982	-99.938095	532.924480	351.027255	41.895940	252.718509	-96.182345	-113.169636	155.115816	252.566686	29.701282	244.067569	-149.837842	-115.130743	107.417503	217.142265	63.083915	87.004555	-26.818768	-105.997913	107.716434	436.457501	143.486906	1458.423805	255.123570	-201.163115	1420.912571	236.754546	254.777883	1211.723091	216.595305	-308.923782	1185.285560	126.765515	132.629505	1147.236962	409.549818	-311.512617	990.739406	281.094624
2626	26.25000	-3.451241	932.040774	162.026586	-37.528668	1472.856007	293.914876	-30.437954	1559.138674	436.937731	72.920463	933.474522	155.715689	-79.822873	930.607037	168.337425	85.589348	516.831071	211.443767	-103.623407	533.376713	346.220886	41.896109	254.516177	-86.786061	-116.154885	152.916548	248.398402	29.957555	245.702869	-140.066893	-118.042754	104.916500	212.895549	62.048989	89.630012	-17.431436	-108.221163	105.415564	433.065508	139.871778	1461.298365	256.651833	-204.284319	1421.794072	240.560958	252.217427	1218.921375	211.819895	-311.387224	1185.377836	133.189583	134.972909	1148.982847	400.602204	-310.330870	994.594406	288.610843
2627	26.26000	-6.066781	933.708628	164.349562	-40.654136	1474.616414	296.556480	-33.773959	1560.954315	439.552137	70.392783	935.062792	158.188415	-82.526240	932.354479	170.510614	84.349378	519.082212	217.200553	-107.308719	533.828946	341.414518	41.896278	256.313846	-77.389777	-119.140135	150.717280	244.230118	30.213828	247.338168	-130.295943	-120.954764	102.415497	208.648832	61.014064	92.255469	-8.044104	-110.444412	103.114694	429.673514	136.256650	1464.172925	258.180097	-207.405522	1422.675573	244.367370	249.656970	1226.119658	207.044486	-313.850666	1185.470113	139.613651	137.316313	1150.728733	391.654591	-309.149123	998.449406	296.127063
2628	26.27000	-8.682320	935.376481	166.672537	-43.779603	1476.376820	299.198084	-37.109963	1562.769956	442.166543	67.865102	936.651062	160.661142	-85.229607	934.101921	172.683804	83.109409	521.333352	222.957339	-110.994031	534.281179	336.608149	41.896447	258.111515	-67.993493	-122.125385	148.518012	240.061834	30.470101	248.973467	-120.524994	-123.866775	99.914493	204.402116	59.979138	94.880926	1.343227	-112.667661	100.813824	426.281520	132.641522	1467.047485	259.708360	-210.526726	1423.557074	248.173782	247.096514	1233.317941	202.269077	-316.314107	1185.562389	146.037718	139.659717	1152.474618	382.706977	-307.967376	1002.304405	303.643282
2629	26.28000	-11.297859	937.044334	168.995512	-46.905071	1478.137226	301.839689	-40.445967	1564.585597	444.780950	65.337422	938.239332	163.133868	-87.932974	935.849363	174.856993	81.869440	523.584492	228.714124	-114.679342	534.733412	331.801781	41.896616	259.909183	-58.597210	-125.110634	146.318744	235.893550	30.726374	250.608766	-110.754045	-126.778786	97.413490	200.155400	58.944213	97.506383	10.730559	-114.890910	98.512954	422.889527	129.026394	1469.922045	261.236623	-213.647929	1424.438575	251.980194	244.536057	1240.516224	197.493668	-318.777549	1185.654665	152.461786	142.003121	1154.220504	373.759364	-306.785628	1006.159405	311.159501
2630	26.29000	-13.913398	938.712188	171.318488	-50.030538	1479.897632	304.481293	-43.781971	1566.401238	447.395356	62.809741	939.827602	165.606594	-90.636340	937.596805	177.030183	80.629471	525.835633	234.470910	-118.364654	535.185644	326.995412	41.896784	261.706852	-49.200926	-128.095884	144.119476	231.725266	30.982647	252.244066	-100.983096	-129.690796	94.912487	195.908684	57.909287	100.131839	20.117890	-117.114160	96.212084	419.497533	125.411267	1472.796604	262.764887	-216.769133	1425.320076	255.786606	241.975601	1247.714507	192.718258	-321.240991	1185.746942	158.885854	144.346526	1155.966389	364.811750	-305.603881	1010.014405	318.675721
2631	26.30000	-16.528938	940.380041	173.641463	-53.156006	1481.658038	307.122897	-47.117975	1568.216878	450.009763	60.282061	941.415872	168.079321	-93.339707	939.344247	179.203373	79.389501	528.086773	240.227696	-122.049966	535.637877	322.189044	41.896953	263.504521	-39.804642	-131.081134	141.920208	227.556983	31.238919	253.879365	-91.212147	-132.602807	92.411484	191.661968	56.874362	102.757296	29.505222	-119.337409	93.911214	416.105539	121.796139	1475.671164	264.293150	-219.890336	1426.201577	259.593018	239.415145	1254.912791	187.942849	-323.704432	1185.839218	165.309921	146.689930	1157.712275	355.864137	-304.422134	1013.869405	326.191940
2632	26.31000	-19.144477	942.047894	175.964439	-56.281473	1483.418445	309.764501	-50.453979	1570.032519	452.624169	57.754380	943.004142	170.552047	-96.043074	941.091689	181.376562	78.149532	530.337914	245.984481	-125.735277	536.090110	317.382676	41.897122	265.302189	-30.408358	-134.066383	139.720939	223.388699	31.495192	255.514664	-81.441198	-135.514818	89.910480	187.415252	55.839436	105.382753	38.892554	-121.560658	91.610344	412.713546	118.181011	1478.545724	265.821413	-223.011540	1427.083078	263.399430	236.854688	1262.111074	183.167440	-326.167874	1185.931495	171.733989	149.033334	1159.458160	346.916523	-303.240387	1017.724405	333.708159
2633	26.32000	-21.760016	943.715748	178.287414	-59.406941	1485.178851	312.406106	-53.789983	1571.848160	455.238575	55.226700	944.592412	173.024774	-98.746441	942.839132	183.549752	76.909563	532.589054	251.741267	-129.420589	536.542343	312.576307	41.897291	267.099858	-21.012074	-137.051633	137.521671	219.220415	31.751465	257.149963	-71.670249	-138.426829	87.409477	183.168536	54.804511	108.008210	48.279885	-123.783907	89.309474	409.321552	114.565883	1481.420284	267.349677	-226.132743	1427.964579	267.205842	234.294232	1269.309357	178.392031	-328.631315	1186.023771	178.158057	151.376738	1161.204046	337.968910	-302.058640	1021.579405	341.224379
2634	26.33000	-24.375556	945.383601	180.610389	-62.532409	1486.939257	315.047710	-57.125987	1573.663801	457.852982	52.699020	946.180682	175.497500	-101.449808	944.586574	185.722941	75.669593	534.840195	257.498053	-133.105901	536.994576	307.769939	41.897460	268.897527	-11.615790	-140.036883	135.322403	215.052131	32.007738	258.785263	-61.899300	-141.338839	84.908474	178.921820	53.769585	110.633667	57.667217	-126.007156	87.008604	405.929558	110.950756	1484.294844	268.877940	-229.253947	1428.846080	271.012254	231.733775	1276.507640	173.616621	-331.094757	1186.116048	184.582125	153.720142	1162.949931	329.021296	-300.876893	1025.434405	348.740598
2635	26.34000	-24.451583	945.213427	180.698775	-62.839333	1486.788951	315.476173	-57.172975	1573.570394	458.160728	52.684380	946.007166	175.851851	-101.587288	944.419731	185.545430	76.259655	536.093955	265.547020	-134.663640	534.892140	301.470505	43.918175	267.824200	1.188846	-143.291131	136.751016	203.158421	34.437005	257.000310	-48.658946	-144.609273	87.604046	166.575529	54.086467	111.925541	72.247787	-129.563650	85.291045	390.087309	110.087710	1484.940382	268.438527	-229.614446	1427.780058	272.673033	229.350018	1279.691380	166.788758	-329.483136	1183.773495	189.508437	157.969224	1158.874674	318.872898	-296.264111	1028.982972	356.602014
2636	26.35000	-24.527611	945.043253	180.787161	-63.146257	1486.638645	315.904635	-57.219962	1573.476987	458.468474	52.669741	945.833649	176.206202	-101.724769	944.252889	185.367919	76.849717	537.347715	273.595988	-136.221379	532.789704	295.171072	45.938890	266.750874	13.993482	-146.545379	138.179630	191.264711	36.866271	255.215357	-35.418593	-147.879707	90.299619	154.229237	54.403349	113.217416	86.828358	-133.120144	83.573486	374.245059	109.224665	1485.585920	267.999114	-229.974946	1426.714036	274.333811	226.966260	1282.875119	159.960894	-327.871515	1181.430943	194.434748	162.218307	1154.799417	308.724499	-291.651329	1032.531540	364.463429
